<svg width="32" height="45" viewBox="0 0 32 45" fill="none" xmlns="http://www.w3.org/2000/svg">
<path d="M27.2288 24.9425L22.983 24.4226C27.7197 20.4286 32 15.2424 32 9.08429C32 4.07522 27.8536 0 22.7569 0C20.1454 0 17.728 1.051 16 2.87903C14.272 1.051 11.8546 0 9.24309 0C4.14641 0 0 4.07522 0 9.08429C0 12.3748 1.24385 15.6918 3.69722 18.9431C5.6539 21.5363 8.43779 24.1569 11.9757 26.7374V28.7085L11.641 28.4324C9.98633 27.0679 7.3973 27.1787 5.8696 28.6801C4.26875 30.2534 4.37374 32.7538 6.11428 34.1892L11.9757 39.023V43.6816C11.9757 44.4097 12.5763 45 13.3172 45H29.4142C30.155 45 30.7556 44.4097 30.7556 43.6816V28.8671C30.7556 26.8759 29.2394 25.1886 27.2288 24.9425ZM2.68284 9.08429C2.68284 5.52911 5.62573 2.63672 9.24309 2.63672C11.5544 2.63672 13.6518 3.79696 14.8536 5.7404C15.3755 6.58397 16.6241 6.58441 17.1463 5.7404C18.3482 3.79696 20.4456 2.63672 22.7569 2.63672C26.3743 2.63672 29.3172 5.52911 29.3172 9.08429C29.3172 13.7366 26.1904 18.5516 20.0243 23.4081V17.3145C20.0243 15.1336 18.219 13.3594 16 13.3594C13.781 13.3594 11.9757 15.1336 11.9757 17.3145V23.4094C5.80682 18.5498 2.68284 13.7379 2.68284 9.08429ZM7.83881 32.1694C7.3093 31.7327 7.27702 31.0257 7.76655 30.5445C8.31635 30.0042 9.32107 29.9613 9.91649 30.4523L12.4549 32.5456C13.3257 33.2637 14.6586 32.6542 14.6586 31.5357V17.3145C14.6586 16.5875 15.2603 15.9961 16 15.9961C16.7397 15.9961 17.3414 16.5875 17.3414 17.3145V25.2246C17.3414 25.8897 17.8455 26.4506 18.517 26.5329L26.8972 27.5589C27.5674 27.641 28.0729 28.2034 28.0729 28.8671V37.0898H13.8053L7.83881 32.1694ZM14.6586 42.3633V39.7266H28.0728V42.3633H14.6586Z" fill="#9D78E4"/>
</svg>
