<svg width="38" height="46" viewBox="0 0 38 46" fill="none" xmlns="http://www.w3.org/2000/svg">
<path d="M19.4574 7.59297H10.9153C9.08348 7.59297 7.59336 6.10285 7.59336 4.27105C7.59336 3.48707 6.95555 2.84736 6.16968 2.84736H5.22056C4.43468 2.84736 3.79688 2.20955 3.79688 1.42368C3.79688 0.63781 4.43468 0 5.22056 0H6.16968C8.5254 0 10.4407 1.91723 10.4407 4.27105C10.4407 4.533 10.6533 4.74561 10.9153 4.74561H19.4574C19.7193 4.74561 19.9319 4.533 19.9319 4.27105C19.9319 1.91723 21.8473 0 24.203 0H25.1521C25.938 0 26.5758 0.63781 26.5758 1.42368C26.5758 2.20955 25.938 2.84736 25.1521 2.84736H24.203C23.4171 2.84736 22.7793 3.48707 22.7793 4.27105C22.7793 6.10285 21.2892 7.59297 19.4574 7.59297Z" fill="#9D78E4"/>
<path d="M25.1517 45.5578H5.22017C2.34053 45.5578 0 43.2173 0 40.3377V5.22017C0 2.34053 2.34053 0 5.22017 0H25.1517C28.0314 0 30.3719 2.34053 30.3719 5.22017V8.04855C30.3719 8.83442 29.7341 9.47223 28.9482 9.47223C28.1623 9.47223 27.5245 8.83442 27.5245 8.04855V5.22017C27.5245 3.91228 26.4596 2.84736 25.1517 2.84736H5.22017C3.91228 2.84736 2.84736 3.91228 2.84736 5.22017V40.3377C2.84736 41.6456 3.91228 42.7105 5.22017 42.7105H25.1517C26.4596 42.7105 27.5245 41.6456 27.5245 40.3377V30.5807C27.5245 29.7948 28.1623 29.157 28.9482 29.157C29.7341 29.157 30.3719 29.7948 30.3719 30.5807V40.3377C30.3719 43.2173 28.0314 45.5578 25.1517 45.5578Z" fill="#9D78E4"/>
<path d="M36.5408 27.618C36.406 27.618 36.2712 27.599 36.1402 27.561L16.2087 21.7258C15.6032 21.5474 15.1855 20.9912 15.1855 20.3591V17.5117C15.1855 16.8758 15.607 16.3177 16.2182 16.1431L36.1497 10.4484C36.5787 10.3231 37.04 10.4085 37.3988 10.68C37.7557 10.9495 37.9645 11.369 37.9645 11.817V26.1943C37.9645 26.6423 37.7538 27.0656 37.395 27.3352C37.1444 27.5193 36.8445 27.618 36.5408 27.618ZM18.0329 19.2923L35.1171 24.2942V13.7039L18.0329 18.5843V19.2923Z" fill="#9D78E4"/>
<path d="M36.5409 28.4263C35.755 28.4263 35.1172 27.7885 35.1172 27.0026V10.8675C35.1172 10.0817 35.755 9.44385 36.5409 9.44385C37.3267 9.44385 37.9646 10.0817 37.9646 10.8675V27.0026C37.9646 27.7885 37.3267 28.4263 36.5409 28.4263Z" fill="#9D78E4"/>
<path d="M16.6092 22.7315C15.8234 22.7315 15.1855 22.0937 15.1855 21.3078V16.5622C15.1855 15.7764 15.8234 15.1385 16.6092 15.1385C17.3951 15.1385 18.0329 15.7764 18.0329 16.5622V21.3078C18.0329 22.0937 17.3951 22.7315 16.6092 22.7315Z" fill="#9D78E4"/>
<path d="M23.2535 28.5216C20.8977 28.5216 18.9824 26.6044 18.9824 24.2505C18.9824 22.7528 19.7702 21.3633 21.0382 20.6268C21.7178 20.2301 22.5891 20.4635 22.9839 21.1412C23.3788 21.8208 23.1472 22.6921 22.4695 23.0869C22.069 23.3204 21.8298 23.7551 21.8298 24.2486C21.8298 25.0326 22.4676 25.6723 23.2535 25.6723C24.0393 25.6723 24.6772 25.0345 24.6772 24.2505C24.6772 24.0436 24.6373 23.8728 24.5557 23.7152C24.1912 23.0205 24.457 22.1606 25.1536 21.7923C25.8465 21.424 26.7102 21.6917 27.0765 22.3903C27.3727 22.9559 27.5245 23.5805 27.5245 24.2486C27.5245 26.6063 25.6092 28.5216 23.2535 28.5216Z" fill="#9D78E4"/>
</svg>
