<svg width="50" height="50" viewBox="0 0 50 50" fill="none" xmlns="http://www.w3.org/2000/svg">
<g clip-path="url(#clip0_2_1254)">
<path d="M33.297 2.16204C33.0069 1.92639 32.6255 1.83456 32.26 1.91081L22.1186 4.03699C22.1031 4.04016 22.0875 4.04389 22.0722 4.04761L22.0717 4.04775C21.5192 4.18591 21.1317 4.68229 21.1317 5.25162V9.50356C21.1317 9.51225 21.1319 9.52108 21.132 9.52962V14.0802C21.132 14.7657 21.6875 15.3212 22.3729 15.3212C23.0584 15.3212 23.6139 14.7657 23.6139 14.0802V11.0319L32.26 12.8444C32.626 12.9209 33.0069 12.8288 33.297 12.5931C33.5871 12.3575 33.7556 12.0037 33.7556 11.6299V3.1253C33.7556 2.75149 33.5871 2.39768 33.297 2.16204ZM31.2737 10.1017L23.6139 8.4959V6.25928L31.2737 4.65347V10.1017ZM36.9971 2.49599C36.7569 1.85414 37.0825 1.13893 37.7243 0.898875L39.915 0.079151C40.5569 -0.16132 41.2721 0.164639 41.5122 0.806354C41.7524 1.44821 41.4268 2.16341 40.785 2.40347L38.5942 3.2232C38.451 3.27697 38.304 3.3022 38.1595 3.3022C37.6566 3.30234 37.1835 2.99472 36.9971 2.49599ZM12.7676 14.1668C15.6207 14.1668 17.942 11.8454 17.942 8.99215C17.942 6.1389 15.6207 3.81762 12.7676 3.81762C9.91425 3.81762 7.59282 6.1389 7.59282 8.99215C7.59282 11.8454 9.91425 14.1668 12.7676 14.1668ZM12.7676 6.2994C14.2524 6.2994 15.4601 7.50741 15.4601 8.99201C15.4601 10.4769 14.2522 11.6848 12.7676 11.6848C11.2826 11.6848 10.0747 10.4768 10.0747 8.99201C10.0747 7.50741 11.2826 6.2994 12.7676 6.2994ZM46.4694 7.3778C46.4694 8.06322 45.9139 8.61876 45.2284 8.61876H38.1589C37.4735 8.61876 36.918 8.06322 36.918 7.3778C36.918 6.69237 37.4735 6.13684 38.1589 6.13684H45.2284C45.9139 6.13684 46.4694 6.69237 46.4694 7.3778ZM41.5123 13.949C41.3256 14.4476 40.8525 14.7556 40.3498 14.7556C40.2052 14.7556 40.0584 14.7301 39.915 14.6766L37.7243 13.857C37.0825 13.6168 36.7568 12.9017 36.997 12.2599C37.2373 11.6179 37.9531 11.2926 38.5941 11.5324L40.7848 12.352C41.4268 12.592 41.7524 13.3071 41.5123 13.949ZM29.3583 17.169C29.7902 17.7011 29.709 18.4826 29.1769 18.9146L21.8734 24.8427C21.6735 25.005 21.4282 25.1009 21.1711 25.1175L21.0868 25.123C19.5423 25.2234 18.4599 25.1307 17.5186 23.0084C16.2207 20.0829 14.9957 18.9431 13.1493 18.9431C9.65489 18.9431 8.59497 22.7854 8.3534 23.963L5.98619 35.4919C5.86554 36.079 5.34875 36.4834 4.77184 36.4834C4.68897 36.4834 4.60514 36.475 4.52089 36.4578C3.84953 36.3199 3.41713 35.6639 3.55487 34.9925L5.92208 23.4638C6.80854 19.1445 9.57753 16.4611 13.1487 16.4611C16.854 16.4611 18.6428 19.4223 19.7872 22.002C19.995 22.4702 20.118 22.622 20.1588 22.6641C20.2421 22.6797 20.4226 22.6751 20.618 22.6651L27.6127 16.9875C28.1449 16.5554 28.9262 16.6369 29.3583 17.169ZM17.0106 48.7588C17.0106 49.4442 16.4551 49.9997 15.7697 49.9997H12.4437C12.4351 49.9999 12.4261 50 12.4174 50C12.2151 50 12.0242 49.9516 11.8557 49.8658C11.4522 49.6609 11.1759 49.2422 11.1759 48.7588C11.1759 48.7464 11.176 48.7341 11.1764 48.7218V24.4042C11.1764 23.7188 11.732 23.1632 12.4174 23.1632C13.1028 23.1632 13.6584 23.7188 13.6584 24.4042V47.5178H15.7698C16.4551 47.5178 17.0106 48.0733 17.0106 48.7588Z" fill="#9D78E4"/>
</g>
<defs>
<clipPath id="clip0_2_1254">
<rect width="50" height="50" fill="white"/>
</clipPath>
</defs>
</svg>
