<svg width="44" height="44" viewBox="0 0 44 44" fill="none" xmlns="http://www.w3.org/2000/svg">
<path d="M28.5128 20.3197C29.417 20.3197 30.15 21.0527 30.15 21.957C30.0638 24.1288 26.9614 24.1281 26.8755 21.957C26.8755 21.0528 27.6085 20.3197 28.5128 20.3197ZM36.7753 7.13841C23.6043 -6.00475 1.01768 3.36 1.00016 21.957V38.8162C0.97167 42.1054 4.79249 44.0801 7.45906 42.1563L10.8677 39.7419C17.3726 43.9021 26.227 43.9558 32.8003 39.8935C34.6135 38.694 33.0048 36.0414 31.1038 37.0927C25.2668 40.7023 17.3503 40.4398 11.7809 36.4188C11.2142 36.0192 10.4572 36.0199 9.89125 36.4208L5.56633 39.4842C5.19934 39.7441 4.85012 39.6122 4.71709 39.5433C4.58399 39.4745 4.27447 39.2659 4.27447 38.8162V21.957C4.27447 12.207 12.2066 4.27481 21.9566 4.27481C35.9193 4.16061 44.5411 20.2316 36.6403 31.771C36.138 32.5226 36.34 33.5394 37.0916 34.042C37.8435 34.5446 38.8601 34.3425 39.3627 33.5908C44.9276 25.522 43.7991 13.9532 36.7753 7.13841ZM20.3266 21.957C20.3266 22.8612 21.0596 23.5942 21.9638 23.5942C24.1356 23.508 24.135 20.4056 21.9638 20.3197C21.0596 20.3197 20.3266 21.0528 20.3266 21.957ZM13.7776 21.957C13.7776 22.8612 14.5106 23.5942 15.4149 23.5942C17.5867 23.508 17.586 20.4056 15.4149 20.3197C14.5106 20.3197 13.7776 21.0528 13.7776 21.957Z" fill="#9D78E4" stroke="#F2F2F2" stroke-width="0.5"/>
</svg>
