<svg width="168" height="118" viewBox="0 0 168 118" fill="none" xmlns="http://www.w3.org/2000/svg">
<g clip-path="url(#clip0_2_808)">
<path d="M42.4383 4.66943H25.1387V24.8243H42.4383V4.66943Z" fill="#F2F2F2"/>
<path d="M89.1297 16.4265H71.8301V36.5813H89.1297V16.4265Z" fill="#F2F2F2"/>
<path d="M135.989 4.66943H118.689V24.8243H135.989V4.66943Z" fill="#F2F2F2"/>
<path d="M83.9132 72.9166H38.3984V84.2655H83.9132V72.9166Z" fill="#3F3D56"/>
<path d="M131.711 117.587H91.6094L102.871 98.0822L111.66 82.8585L131.711 117.587Z" fill="#3F3D56"/>
<path d="M89.6521 87.2792H23V117.595H89.6521V87.2792Z" fill="#3F3D56"/>
<path d="M111.591 82.8317C115.956 82.8317 119.494 79.2933 119.494 74.9285C119.494 70.5636 115.956 67.0252 111.591 67.0252C107.226 67.0252 103.688 70.5636 103.688 74.9285C103.688 79.2933 107.226 82.8317 111.591 82.8317Z" fill="#F97588"/>
<path d="M144.839 117.461H0.263672V117.797H144.839V117.461Z" fill="#3F3D56"/>
<path opacity="0.1" d="M83.9126 73.678V84.266H73.1953L79.7456 72.9172H83.4743L83.9126 73.678Z" fill="black"/>
<path opacity="0.1" d="M89.6524 87.2792V117.595H53.9531L53.9867 117.537L71.4559 87.2792H89.6524Z" fill="black"/>
<path opacity="0.1" d="M114.132 117.587H91.6094L102.871 98.0822L103.375 98.9539L114.132 117.587Z" fill="black"/>
<path d="M111.628 117.612H56.293L56.3366 117.537L74.4844 86.1035L83.9606 69.689L100.855 98.9539L111.613 117.587L111.628 117.612Z" fill="#F97588"/>
<path d="M83.8787 70.1026C85.7588 70.1026 87.2828 68.5786 87.2828 66.6985C87.2828 64.8185 85.7588 63.2944 83.8787 63.2944C81.9987 63.2944 80.4746 64.8185 80.4746 66.6985C80.4746 68.5786 81.9987 70.1026 83.8787 70.1026Z" fill="#3F3D56"/>
<path d="M74.4785 67.782C67.5772 67.7874 60.7237 66.6369 54.2024 64.3784C45.4598 61.3557 38.2977 57.1864 32.9151 51.9862C22.7333 42.1497 14.3858 40.6673 9.17712 41.1554C3.53874 41.684 0.256776 44.5713 0.2243 44.6004L0 44.3503C0.0331312 44.3206 3.38276 41.3678 9.12398 40.823C12.4907 40.5037 16.0115 41.06 19.5888 42.4769C24.0499 44.2438 28.612 47.3619 33.1485 51.7446C38.4956 56.9106 45.6161 61.0544 54.3121 64.0609C70.276 69.5802 88.2679 68.2439 103.674 60.3945C108.776 57.7954 113.817 56.0214 118.659 55.1217C124.765 53.9868 130.556 54.2502 135.871 55.904C147.553 59.5382 155.531 59.3454 160.168 58.5442C165.17 57.6796 167.44 55.9492 167.462 55.9318L167.669 56.1969C167.575 56.27 165.31 57.9964 160.225 58.8752C155.552 59.683 147.516 59.8787 135.772 56.2247C123.88 52.5256 111.836 56.613 103.827 60.6937C96.2121 64.594 87.897 66.9398 79.3663 67.5942C77.7312 67.7194 76.1019 67.782 74.4785 67.782Z" fill="#3F3D56"/>
<path d="M36.5555 54.9471L36.3151 54.7125C37.4206 53.459 38.2586 51.9929 38.7777 50.4042C39.5949 47.9448 39.9942 44.0607 37.2547 39.5234C34.4518 34.8812 34.3257 31.1106 34.7134 28.7649C35.1353 26.2126 36.2117 24.7819 36.2573 24.7223L36.5242 24.9263C36.5135 24.9403 35.4465 26.3633 35.0416 28.8395C34.6678 31.1257 34.7982 34.8049 37.5422 39.3497C40.3517 44.003 39.9355 47.995 39.0917 50.5245C38.1774 53.2651 36.6213 54.8797 36.5555 54.9471Z" fill="#3F3D56"/>
<path d="M49.1565 24.9923H24.9707V0.806458H49.1565V24.9923ZM25.3066 24.6564H48.8206V1.14237H25.3066V24.6564Z" fill="#3F3D56"/>
<path d="M83.4149 66.872L83.1744 66.6375C84.2799 65.3839 85.1179 63.918 85.6371 62.3293C86.4544 59.8698 86.8534 55.9856 84.114 51.4484C81.3112 46.8061 81.185 43.0356 81.5728 40.6899C81.9946 38.1376 83.071 36.7069 83.1167 36.6473L83.3836 36.8512C83.3729 36.8653 82.3058 38.2883 81.9008 40.7645C81.527 43.0506 81.6574 46.7299 84.4016 51.2747C87.2112 55.928 86.7949 59.92 85.951 62.4495C85.0367 65.1901 83.4807 66.8046 83.4149 66.872Z" fill="#3F3D56"/>
<path d="M96.0159 36.9172H71.8301V12.7314H96.0159V36.9172ZM72.166 36.5813H95.68V13.0673H72.166V36.5813Z" fill="#3F3D56"/>
<path d="M130.108 54.7792L129.868 54.5445C130.973 53.291 131.811 51.825 132.33 50.2363C133.148 47.7769 133.547 43.8927 130.807 39.3555C128.005 34.7132 127.878 30.9426 128.266 28.5969C128.688 26.0446 129.764 24.6139 129.81 24.5543L130.077 24.7583C130.066 24.7723 128.999 26.1953 128.594 28.6716C128.22 30.9577 128.351 34.6369 131.095 39.1818C133.905 43.835 133.488 47.8271 132.644 50.3565C131.73 53.0971 130.174 54.7117 130.108 54.7792Z" fill="#3F3D56"/>
<path d="M142.707 24.8243H118.521V0.638489H142.707V24.8243ZM118.857 24.4884H142.371V0.974403H118.857V24.4884Z" fill="#3F3D56"/>
<path d="M44.788 7.86066H30.0078V8.19657H44.788V7.86066Z" fill="#3F3D56"/>
<path d="M44.788 11.5557H30.0078V11.8916H44.788V11.5557Z" fill="#3F3D56"/>
<path d="M44.788 15.2507H30.0078V15.5866H44.788V15.2507Z" fill="#3F3D56"/>
<path d="M91.3134 19.2817H76.5332V19.6177H91.3134V19.2817Z" fill="#3F3D56"/>
<path d="M91.3134 22.9768H76.5332V23.3127H91.3134V22.9768Z" fill="#3F3D56"/>
<path d="M91.3134 26.6719H76.5332V27.0078H91.3134V26.6719Z" fill="#3F3D56"/>
<path d="M138.005 7.86066H123.225V8.19657H138.005V7.86066Z" fill="#3F3D56"/>
<path d="M138.005 11.5557H123.225V11.8916H138.005V11.5557Z" fill="#3F3D56"/>
<path d="M138.005 15.2507H123.225V15.5866H138.005V15.2507Z" fill="#3F3D56"/>
<path d="M137.963 112.188C138.868 115.535 141.97 117.608 141.97 117.608C141.97 117.608 143.603 114.254 142.698 110.907C141.792 107.56 138.691 105.487 138.691 105.487C138.691 105.487 137.057 108.84 137.963 112.188Z" fill="#F97588"/>
<path d="M139.293 111.468C141.778 113.887 142.081 117.605 142.081 117.605C142.081 117.605 138.357 117.402 135.872 114.983C133.387 112.564 133.084 108.846 133.084 108.846C133.084 108.846 136.809 109.05 139.293 111.468Z" fill="#3F3D56"/>
<path d="M49.491 94.3586H32.1914V114.513H49.491V94.3586Z" fill="#F2F2F2"/>
<path d="M56.2093 114.513H32.0234V90.3276H56.2093V114.513ZM32.3594 114.177H55.8734V90.6635H32.3594V114.177Z" fill="white"/>
<path d="M51.5068 97.5497H36.7266V97.8857H51.5068V97.5497Z" fill="#F97588"/>
<path d="M51.5068 101.245H36.7266V101.581H51.5068V101.245Z" fill="#F97588"/>
<path d="M51.5068 104.94H36.7266V105.276H51.5068V104.94Z" fill="#F97588"/>
<path d="M38.0487 37.1165H38.0487C34.0123 37.1165 30.7402 40.7478 30.7402 45.2273V50.9185H32.4906L33.5039 48.8099L33.2506 50.9185H44.5012L45.4224 49.0015L45.1921 50.9185H46.4588V46.4499C46.4588 41.2952 42.6935 37.1165 38.0487 37.1165Z" fill="#2F2E41"/>
<path d="M29.6744 74.2997L25.1871 76.2069L9.5936 88.8835C9.02021 89.5882 8.66882 90.4471 8.58395 91.3516C8.47176 92.8099 3.76007 100.438 5.44281 101.448C7.12555 102.458 13.1835 105.487 13.52 103.467C13.8565 101.448 15.6515 92.8099 15.6515 92.8099L30.684 79.348L29.6744 74.2997Z" fill="#2F2E41"/>
<path d="M12.0627 101.785L10.1556 107.394C10.1556 107.394 12.1749 109.525 11.1653 111.32V117.49H9.5947L9.14597 114.237C9.14597 114.237 7.35709 117.449 6.45357 117.49C4.55949 117.576 0.808661 118.25 0.696477 117.24C0.584294 116.231 3.53681 115.247 3.53681 115.247L6.67795 106.608L8.02414 101.336L12.0627 101.785Z" fill="#2F2E41"/>
<path d="M41.3424 72.8414C41.3424 72.8414 42.352 82.7135 39.4353 84.5084C36.5185 86.3034 23.6174 92.0247 23.6174 92.0247C23.6174 92.0247 29.1144 97.1851 27.9926 98.4192C26.8707 99.6532 21.8225 103.019 21.1494 102.346C20.4763 101.672 12.96 93.5953 13.8575 91.0151C14.755 88.4349 27.2073 80.0211 27.2073 80.0211L28.6657 74.7485L29.1144 70.4855L33.8261 67.4566L41.3424 72.8414Z" fill="#2F2E41"/>
<path d="M36.2021 49.8566C38.785 49.8566 40.8788 47.7627 40.8788 45.1798C40.8788 42.597 38.785 40.5031 36.2021 40.5031C33.6192 40.5031 31.5254 42.597 31.5254 45.1798C31.5254 47.7627 33.6192 49.8566 36.2021 49.8566Z" fill="#FFB9B9"/>
<path d="M39.8262 47.0953C39.8262 47.0953 39.6018 51.3583 43.0795 52.7045C46.5572 54.0507 34.4414 62.801 34.4414 62.801V53.041C34.4414 53.041 36.012 51.3583 34.4414 48.7781L39.8262 47.0953Z" fill="#FFB9B9"/>
<path d="M47.2869 67.12L46.3894 71.4951L43.697 86.5277C43.697 86.5277 45.9407 92.9221 42.9118 92.8099C39.8828 92.6978 41.3412 85.8546 41.3412 85.8546L42.9118 73.4023V68.5784L47.2869 67.12Z" fill="#FFB9B9"/>
<path d="M27.9922 64.9885L26.9826 68.9149L22.3831 80.0211C22.3831 80.0211 19.2419 85.2937 21.8221 85.1815C24.4024 85.0693 24.4024 80.0211 24.4024 80.0211L29.675 71.0464V65.9982L27.9922 64.9885Z" fill="#FFB9B9"/>
<path d="M27.2071 97.746L30.9091 101.224C30.9091 101.224 33.4893 100.663 34.499 103.692C35.5086 106.721 36.1817 108.628 36.1817 108.628L34.8355 109.413L33.1528 107.057C33.1528 107.057 32.1431 111.32 31.1335 111.657C30.1238 111.993 25.0756 114.237 25.5243 111.657L27.9923 108.067C27.9923 108.067 28.3289 104.028 27.3192 103.692C26.3096 103.355 23.6172 99.9897 23.6172 99.9897L27.2071 97.746Z" fill="#2F2E41"/>
<path d="M41.5191 76.3191C41.5191 76.3191 30.9739 72.5048 30.3008 72.8414C29.7998 73.0627 29.2661 73.2012 28.7207 73.2515L28.7303 71.7196C28.7303 71.7196 32.2079 70.4856 34.1151 71.2708C36.0222 72.0561 41.8557 75.5338 41.8557 75.5338L41.5191 76.3191Z" fill="#3F3D56"/>
<path d="M35.116 60.5573C35.116 60.5573 38.145 57.0796 39.0424 54.9482C39.6102 53.656 40.6525 52.6311 41.954 52.0851C41.954 52.0851 48.6902 53.602 48.578 56.2944C48.4658 58.9868 44.315 63.1375 44.315 63.1375C44.315 63.1375 44.876 78.0579 41.847 77.8335C41.1937 77.0538 40.7326 76.1316 40.5008 75.1411C40.1643 73.5706 29.7312 71.8878 29.7312 71.8878C29.7312 71.8878 28.8338 73.4584 28.7216 72.7853C28.6094 72.1122 29.6191 55.6213 29.6191 55.6213L34.9687 52.0851L35.116 60.5573Z" fill="#D0CDE1"/>
<path d="M47.7142 55.2106L47.7893 55.2528C48.029 55.3873 48.2286 55.5833 48.3675 55.8206C48.5064 56.0578 48.5796 56.3278 48.5796 56.6027L48.5784 64.9282C48.5792 65.1545 48.6293 65.3779 48.7251 65.5829C48.821 65.7879 48.9602 65.9696 49.1333 66.1154C49.5655 66.483 49.9662 67.0127 49.1392 67.2883C47.793 67.737 42.5204 69.9807 42.4082 69.1954C42.296 68.4101 42.0717 67.5127 42.4082 67.5127C42.6717 67.5127 44.2415 59.4682 45.5029 56.0287C45.58 55.8182 45.7018 55.6268 45.8601 55.468C46.0184 55.3092 46.2092 55.1866 46.4195 55.1088C46.6298 55.031 46.8545 54.9998 47.078 55.0174C47.3016 55.035 47.5186 55.1009 47.7142 55.2106Z" fill="#D0CDE1"/>
<path d="M31.133 55.2286L29.5625 55.6774L27.7675 63.418C27.7675 63.418 25.6361 63.8668 26.3092 64.652C26.9823 65.4373 29.7868 67.4566 29.7868 67.4566L31.133 55.2286Z" fill="#D0CDE1"/>
<path d="M40.1262 39.3508C39.7745 38.8785 39.3188 38.4936 38.7943 38.226C38.2698 37.9583 37.6907 37.8151 37.1019 37.8074H36.9584C34.1919 37.8074 31.9492 40.3108 31.9492 43.3989V43.3989H32.8762L33.0259 42.2594L33.2454 43.3989H38.7433L39.2039 42.4349L39.0888 43.3989H40.1704C40.6751 45.9054 39.9499 48.4119 37.9948 50.9185H39.8373L40.7585 48.9904L40.5282 50.9185H44.0404L44.7313 46.4838C44.7313 43.1627 42.8017 40.3465 40.1262 39.3508Z" fill="#2F2E41"/>
<path opacity="0.1" d="M69.7254 72.9166H52.2578V78.6104H69.7254V72.9166Z" fill="black"/>
<path d="M69.0536 68.0291H53.2656V77.7706H69.0536V68.0291Z" fill="#F97588"/>
</g>
<defs>
<clipPath id="clip0_2_808">
<rect width="167.669" height="117.159" fill="white" transform="translate(0 0.638489)"/>
</clipPath>
</defs>
</svg>
