<svg width="245" height="118" viewBox="0 0 245 118" fill="none" xmlns="http://www.w3.org/2000/svg">
<g clip-path="url(#clip0_2_867)">
<path d="M191.37 18.0817H131.297V16.8436H104.057V18.0817H43.7357C42.6579 18.0817 41.6243 18.5098 40.8622 19.2719C40.1 20.0341 39.6719 21.0677 39.6719 22.1455V104.404C39.6719 105.482 40.1 106.516 40.8622 107.278C41.6243 108.04 42.6579 108.468 43.7357 108.468H191.37C192.448 108.468 193.482 108.04 194.244 107.278C195.006 106.516 195.434 105.482 195.434 104.404V22.1451C195.434 21.0673 195.006 20.0338 194.244 19.2718C193.481 18.5098 192.448 18.0817 191.37 18.0817Z" fill="#3F3D56"/>
<path d="M189.985 25.2629H45.1191V106.982H189.985V25.2629Z" fill="#E6E6E6"/>
<path d="M183.891 29.5845H51.2637V100.22H183.891V29.5845Z" fill="white"/>
<path d="M117.429 23.0345C118.25 23.0345 118.915 22.3693 118.915 21.5487C118.915 20.728 118.25 20.0628 117.429 20.0628C116.609 20.0628 115.943 20.728 115.943 21.5487C115.943 22.3693 116.609 23.0345 117.429 23.0345Z" fill="#F97588"/>
<path d="M199.5 105.496H185.362V104.477C185.362 104.424 185.341 104.372 185.303 104.335C185.265 104.297 185.214 104.275 185.16 104.275H180.313C180.259 104.275 180.208 104.297 180.17 104.335C180.132 104.372 180.111 104.424 180.111 104.477V105.496H177.081V104.477C177.081 104.424 177.06 104.372 177.022 104.335C176.984 104.297 176.933 104.275 176.879 104.275H172.032C171.979 104.275 171.927 104.297 171.889 104.335C171.851 104.372 171.83 104.424 171.83 104.477V105.496H168.801V104.477C168.801 104.424 168.779 104.372 168.742 104.335C168.704 104.297 168.652 104.275 168.599 104.275H163.751C163.698 104.275 163.646 104.297 163.608 104.335C163.571 104.372 163.549 104.424 163.549 104.477V105.496H160.52V104.477C160.52 104.424 160.499 104.372 160.461 104.335C160.423 104.297 160.371 104.275 160.318 104.275H155.471C155.417 104.275 155.366 104.297 155.328 104.335C155.29 104.372 155.269 104.424 155.269 104.477V105.496H152.239V104.477C152.239 104.424 152.218 104.372 152.18 104.335C152.142 104.297 152.091 104.275 152.037 104.275H147.19C147.136 104.275 147.085 104.297 147.047 104.335C147.009 104.372 146.988 104.424 146.988 104.477V105.496H143.958V104.477C143.958 104.424 143.937 104.372 143.899 104.335C143.861 104.297 143.81 104.275 143.756 104.275H138.91C138.856 104.275 138.805 104.297 138.767 104.335C138.729 104.372 138.708 104.424 138.708 104.477V105.496H135.677V104.477C135.677 104.424 135.656 104.372 135.618 104.335C135.58 104.297 135.529 104.275 135.475 104.275H97.505C97.4515 104.275 97.4001 104.297 97.3622 104.335C97.3243 104.372 97.303 104.424 97.303 104.477V105.496H94.2736V104.477C94.2736 104.424 94.2523 104.372 94.2144 104.335C94.1765 104.297 94.1251 104.275 94.0715 104.275H89.2242C89.1706 104.275 89.1192 104.297 89.0814 104.335C89.0435 104.372 89.0222 104.424 89.0222 104.477V105.496H85.9928V104.477C85.9928 104.424 85.9715 104.372 85.9336 104.335C85.8957 104.297 85.8443 104.275 85.7907 104.275H80.9436C80.89 104.275 80.8387 104.297 80.8008 104.335C80.7629 104.372 80.7416 104.424 80.7416 104.477V105.496H77.7119V104.477C77.7119 104.424 77.6906 104.372 77.6528 104.335C77.6149 104.297 77.5635 104.275 77.5099 104.275H72.6628C72.6092 104.275 72.5578 104.297 72.52 104.335C72.4821 104.372 72.4608 104.424 72.4608 104.477V105.496H69.4318V104.477C69.4318 104.424 69.4105 104.372 69.3726 104.335C69.3347 104.297 69.2834 104.275 69.2298 104.275H64.382C64.3284 104.275 64.277 104.297 64.2391 104.335C64.2012 104.372 64.18 104.424 64.18 104.477V105.496H61.1505V104.477C61.1505 104.424 61.1292 104.372 61.0914 104.335C61.0535 104.297 61.0021 104.275 60.9485 104.275H56.1012C56.0476 104.275 55.9962 104.297 55.9583 104.335C55.9204 104.372 55.8991 104.424 55.8991 104.477V105.496H52.8697V104.477C52.8697 104.424 52.8484 104.372 52.8105 104.335C52.7727 104.297 52.7213 104.275 52.6677 104.275H47.8194C47.7659 104.275 47.7145 104.297 47.6766 104.335C47.6387 104.372 47.6174 104.424 47.6174 104.477V105.496H38.3278C37.0422 105.496 35.8093 106.007 34.9002 106.916C33.9912 107.825 33.4805 109.058 33.4805 110.343V112.535C33.4805 113.821 33.9912 115.054 34.9002 115.963C35.8093 116.872 37.0422 117.382 38.3278 117.382H199.5C200.786 117.382 202.019 116.872 202.928 115.963C203.837 115.054 204.347 113.821 204.347 112.535V110.344C204.347 109.058 203.837 107.825 202.928 106.916C202.019 106.007 200.786 105.496 199.5 105.496V105.496Z" fill="#3F3D56"/>
<path d="M146.901 34.5387H88.252V96.1894H146.901V34.5387Z" fill="#E6E6E6"/>
<path d="M124.654 51.9909C128.959 51.9909 132.448 48.5012 132.448 44.1964C132.448 39.8916 128.959 36.4019 124.654 36.4019C120.349 36.4019 116.859 39.8916 116.859 44.1964C116.859 48.5012 120.349 51.9909 124.654 51.9909Z" fill="#A0616A"/>
<path d="M106.719 96.3164L111.752 64.6281C112.02 62.9433 112.643 61.3349 113.581 59.9097C114.519 58.4846 115.749 57.2754 117.19 56.3628C118.631 55.4501 120.251 54.8548 121.94 54.6166C123.629 54.3783 125.35 54.5025 126.987 54.9809C129.85 55.8089 132.301 57.6745 133.863 60.2133C135.424 62.7521 135.982 65.7817 135.429 68.7103L130.164 97.0093L106.719 96.3164Z" fill="#F97588"/>
<path d="M126.805 101.986C127.194 101.729 127.523 101.39 127.767 100.992C128.011 100.594 128.164 100.148 128.217 99.6846C128.27 99.2211 128.221 98.7516 128.072 98.3092C127.924 97.8669 127.681 97.4624 127.359 97.1243L132.563 87.048L126.703 87.6733L122.66 97.1462C122.13 97.7244 121.83 98.4766 121.817 99.2608C121.804 100.045 122.078 100.807 122.588 101.403C123.098 101.998 123.809 102.387 124.586 102.494C125.363 102.602 126.152 102.421 126.805 101.986L126.805 101.986Z" fill="#A0616A"/>
<path d="M127.92 95.3471C127.632 95.3064 127.363 95.179 127.15 94.9818L125.159 93.1422C124.944 92.9425 124.795 92.6816 124.733 92.3947C124.672 92.1079 124.699 91.809 124.813 91.5383L128.791 82.1072L128.227 63.4723C128.392 62.2633 129.03 61.1694 130.002 60.4312C130.973 59.6929 132.198 59.3708 133.407 59.5358C134.616 59.7007 135.71 60.3391 136.448 61.3106C137.186 62.282 137.509 63.507 137.344 64.7159L138.309 76.4302C138.602 79.9855 137.594 83.5263 135.472 86.3941L129.267 94.7825C129.148 94.9437 128.996 95.078 128.821 95.1766C128.647 95.2752 128.453 95.336 128.254 95.3549C128.142 95.3655 128.03 95.3628 127.92 95.3471Z" fill="#F97588"/>
<path d="M79.7664 39.9497C79.8513 40.4084 80.0358 40.8429 80.3068 41.2226C80.5779 41.6024 80.9288 41.918 81.3351 42.1475C81.7413 42.3769 82.1929 42.5144 82.658 42.5504C83.1231 42.5864 83.5905 42.52 84.0272 42.3559L91.2775 51.0761L92.9862 45.4361L85.8393 38.0198C85.5133 37.3068 84.9375 36.7377 84.2207 36.4201C83.5039 36.1025 82.6956 36.0582 81.9484 36.2957C81.2012 36.5332 80.5668 37.0359 80.1648 37.7091C79.7629 38.3822 79.6212 39.1792 79.7666 39.9497H79.7664Z" fill="#A0616A"/>
<path d="M85.447 43.5642C85.5966 43.315 85.8187 43.1173 86.0836 42.9975L88.5542 41.8816C88.822 41.7614 89.1202 41.7263 89.4085 41.7811C89.6968 41.8359 89.9614 41.9779 90.1664 42.188L97.2998 49.529L114.68 56.2748C115.2 56.5832 115.654 56.991 116.016 57.4749C116.378 57.9588 116.642 58.5093 116.791 59.0949C116.94 59.6806 116.973 60.29 116.886 60.8882C116.8 61.4864 116.597 62.0618 116.288 62.5814C115.979 63.101 115.571 63.5547 115.087 63.9165C114.603 64.2783 114.052 64.5412 113.467 64.6902C112.881 64.8391 112.271 64.8711 111.673 64.7845C111.075 64.6978 110.5 64.4941 109.98 64.185L98.8171 60.5063C95.4287 59.3903 92.561 57.0815 90.7475 54.0094L85.4423 45.0251C85.3405 44.8523 85.2761 44.66 85.2533 44.4607C85.2306 44.2614 85.2501 44.0595 85.3105 43.8683C85.3441 43.7619 85.3901 43.6599 85.4477 43.5644L85.447 43.5642Z" fill="#F97588"/>
<path opacity="0.1" d="M130.976 71.2241L130.659 81.3794L124.812 91.5391L129.694 80.218L130.976 71.2241Z" fill="black"/>
<path d="M119.375 40.2896C120.179 41.2411 121.54 41.5094 122.795 41.6195C125.344 41.8431 129.05 41.481 131.541 40.9054C131.719 42.6286 131.235 44.4864 132.249 45.9039C132.725 44.1878 133.002 42.4227 133.074 40.6433C133.105 39.8813 133.093 39.0907 132.783 38.3902C132.472 37.6896 131.796 37.095 131.017 37.0888C131.596 36.6498 132.274 36.3601 132.991 36.2451L130.525 35.0058L131.158 34.3556L126.693 34.0825L127.986 33.2609C126.04 32.9937 124.071 32.9318 122.112 33.0762C121.202 33.1432 120.251 33.2713 119.514 33.7985C118.777 34.3256 118.351 35.3732 118.809 36.1472C118.236 36.2413 117.696 36.48 117.241 36.8409C116.787 37.2018 116.431 37.6728 116.21 38.2094C115.881 39.0425 115.911 39.9679 116.012 40.8557C116.181 42.2756 116.511 43.6716 116.996 45.0166" fill="#2F2E41"/>
<path d="M152.697 20.7631L81.6718 37.1605C81.323 37.2406 80.9567 37.179 80.6532 36.9894C80.3497 36.7997 80.1339 36.4975 80.0529 36.1489L75.9855 18.5306C75.9054 18.1819 75.9669 17.8155 76.1565 17.512C76.3462 17.2085 76.6485 16.9927 76.9971 16.9117L148.022 0.514383C148.371 0.434296 148.737 0.495823 149.04 0.685466C149.344 0.875109 149.56 1.17738 149.641 1.52599L153.708 19.1442C153.788 19.493 153.727 19.8593 153.537 20.1628C153.347 20.4663 153.045 20.6822 152.697 20.7631Z" fill="white"/>
<path d="M152.697 20.7631L81.6718 37.1605C81.323 37.2406 80.9567 37.179 80.6532 36.9894C80.3497 36.7997 80.1339 36.4975 80.0529 36.1489L75.9855 18.5306C75.9054 18.1819 75.9669 17.8155 76.1565 17.512C76.3462 17.2085 76.6485 16.9927 76.9971 16.9117L148.022 0.514383C148.371 0.434296 148.737 0.495823 149.04 0.685466C149.344 0.875109 149.56 1.17738 149.641 1.52599L153.708 19.1442C153.788 19.493 153.727 19.8593 153.537 20.1628C153.347 20.4663 153.045 20.6822 152.697 20.7631ZM77.1186 17.438C76.9094 17.4865 76.728 17.6161 76.6142 17.7982C76.5004 17.9803 76.4634 18.2001 76.5115 18.4094L80.579 36.0277C80.6275 36.2369 80.757 36.4183 80.9392 36.5321C81.1213 36.6459 81.3411 36.6828 81.5505 36.6347L152.575 20.2373C152.784 20.1888 152.966 20.0593 153.08 19.8772C153.194 19.695 153.23 19.4752 153.182 19.2659L149.115 1.64742C149.066 1.43819 148.937 1.25675 148.755 1.14294C148.572 1.02913 148.353 0.992242 148.143 1.04038L77.1186 17.438Z" fill="#E6E6E6"/>
<path d="M101.763 17.3835C101.646 17.4103 101.535 17.46 101.437 17.5297C101.338 17.5994 101.255 17.6878 101.191 17.7898C101.127 17.8917 101.084 18.0053 101.064 18.124C101.044 18.2427 101.047 18.3642 101.074 18.4815C101.101 18.5988 101.151 18.7097 101.22 18.8078C101.29 18.906 101.378 18.9894 101.48 19.0533C101.582 19.1173 101.696 19.1605 101.815 19.1805C101.933 19.2006 102.055 19.197 102.172 19.1701L102.175 19.1694L144.271 9.45075C144.508 9.39576 144.713 9.24916 144.841 9.04315C144.97 8.83713 145.011 8.58854 144.957 8.35196C144.902 8.11537 144.756 7.91013 144.55 7.7813C144.344 7.65247 144.096 7.61058 143.859 7.66483L101.763 17.3835Z" fill="#E6E6E6"/>
<path d="M102.999 22.7415C102.882 22.7683 102.771 22.818 102.673 22.8877C102.575 22.9574 102.491 23.0458 102.427 23.1478C102.363 23.2497 102.32 23.3633 102.3 23.482C102.28 23.6007 102.283 23.7222 102.31 23.8395C102.337 23.9568 102.387 24.0677 102.457 24.1658C102.526 24.264 102.615 24.3474 102.717 24.4113C102.819 24.4753 102.932 24.5185 103.051 24.5385C103.17 24.5586 103.291 24.5551 103.408 24.5281L103.412 24.5274L121.526 20.3455C121.763 20.2911 121.968 20.1449 122.097 19.9391C122.226 19.7332 122.268 19.4845 122.214 19.2476C122.16 19.0107 122.014 18.8051 121.808 18.676C121.602 18.5468 121.353 18.5047 121.116 18.5588L121.113 18.5595L102.999 22.7415Z" fill="#E6E6E6"/>
<path d="M90.2545 29.2586C93.2914 29.2586 95.7532 26.7968 95.7532 23.7599C95.7532 20.7231 93.2914 18.2612 90.2545 18.2612C87.2177 18.2612 84.7559 20.7231 84.7559 23.7599C84.7559 26.7968 87.2177 29.2586 90.2545 29.2586Z" fill="#F97588"/>
<path d="M90.1005 26.932C89.9206 26.9738 89.7319 26.956 89.563 26.8812L89.5524 26.8765L87.3399 25.8721C87.2371 25.8256 87.1446 25.7592 87.0675 25.6769C86.9905 25.5945 86.9304 25.4978 86.8907 25.3922C86.8511 25.2866 86.8326 25.1743 86.8364 25.0615C86.8402 24.9488 86.8662 24.838 86.9129 24.7353C86.9596 24.6326 87.0261 24.5402 87.1085 24.4632C87.191 24.3863 87.2878 24.3263 87.3934 24.2868C87.4991 24.2473 87.6115 24.229 87.7242 24.233C87.8369 24.237 87.9477 24.2631 88.0503 24.3099L89.484 24.9626L91.4953 20.5432C91.5895 20.3363 91.762 20.1753 91.9749 20.0955C92.1878 20.0158 92.4237 20.0239 92.6306 20.118L92.6186 20.1469L92.6313 20.1179C92.8381 20.2123 92.9989 20.3849 93.0786 20.5978C93.1583 20.8107 93.1502 21.0465 93.0563 21.2535L90.6908 26.4524C90.6359 26.5721 90.5542 26.6777 90.452 26.7608C90.3498 26.8439 90.2298 26.9023 90.1014 26.9316L90.1005 26.932Z" fill="white"/>
</g>
<defs>
<clipPath id="clip0_2_867">
<rect width="244.986" height="117.159" fill="white" transform="translate(0 0.479797)"/>
</clipPath>
</defs>
</svg>
