<svg width="168" height="126" viewBox="0 0 168 126" fill="none" xmlns="http://www.w3.org/2000/svg">
<g clip-path="url(#clip0_2_895)">
<path d="M13.3047 117.473L16.2923 118.915L23.2766 108.078L18.8671 105.949L13.3047 117.473Z" fill="#A0616A"/>
<path d="M11.6934 120.539L20.8806 124.974L20.9367 124.857C21.3945 123.909 21.4568 122.818 21.1099 121.823C20.763 120.829 20.0354 120.013 19.0871 119.555L19.0869 119.555L18.0233 117.472L14.2776 117.234L13.4756 116.847L11.6934 120.539Z" fill="#2F2E41"/>
<path d="M35.5418 121.513L38.8592 121.513L40.4374 108.717L35.541 108.717L35.5418 121.513Z" fill="#A0616A"/>
<path d="M35.4259 124.974L45.6275 124.973V124.844C45.6275 123.791 45.2091 122.781 44.4644 122.037C43.7198 121.292 42.7099 120.874 41.6568 120.874H41.6565L39.7931 119.46L36.3163 120.874L35.4258 120.874L35.4259 124.974Z" fill="#2F2E41"/>
<path d="M38.8307 62.1666L42.6322 88.3819L41.5976 91.8313L42.9552 94.2743L40.9616 112.662L41.7708 114.443L39.5098 115.838H34.9088L34.6647 96.4146L33.5282 93.5628V91.9912L31.2146 80.1473L30.6809 98.5851L29.9423 100.01C27.1909 106.252 23.4846 108.296 20.8644 112.962L16.2632 110.47L16.3597 108.611C15.4354 108.143 17.7475 106.776 17.9697 105.764L18.3721 103.952L21.0561 98.392L21.1585 96.4341L20.4239 83.1174L20.7696 65.1849L26.8048 60.5698L38.8307 62.1666Z" fill="#2F2E41"/>
<path d="M51.6514 25.5039C52.1697 27.3778 52.979 29.1588 54.0497 30.7818C56.4423 34.3994 59.8663 37.1658 63.6296 39.3801C63.8903 39.5354 64.1549 39.6868 64.4195 39.8364H67.0593L67.1514 39.6255V39.6236L67.2587 39.3801L67.2722 39.3513L67.2779 39.3801L67.3834 39.8364H68.6793C68.7867 39.6849 68.8921 39.5335 68.9956 39.3801C69.1471 39.1558 69.2928 38.9296 69.4308 38.6995C69.6745 38.2971 69.8922 37.8796 70.0826 37.4495C70.1057 37.4016 70.1248 37.3537 70.144 37.3058L70.0577 37.2118L70.4162 35.6436L69.6954 35.5247L70.4852 33.0881C70.4565 32.998 70.4239 32.9079 70.3894 32.8177C69.9465 31.6962 69.1145 30.8584 68.1272 30.1549C67.1111 29.4283 65.9282 28.8454 64.8412 28.2396C64.3312 27.954 63.829 27.653 63.3401 27.3347V27.3328C62.7151 26.9283 62.1087 26.4957 61.5207 26.0349C61.5107 26.0285 61.5011 26.0215 61.492 26.0138C61.4839 26.008 61.4762 26.0016 61.469 25.9947C58.8333 23.9355 56.6029 21.4048 54.8913 18.5313C54.891 18.5313 54.8908 18.5312 54.8906 18.5311C54.8903 18.531 54.8901 18.5309 54.8899 18.5307C54.8898 18.5305 54.8896 18.5303 54.8895 18.5301C54.8894 18.5299 54.8894 18.5296 54.8894 18.5294C54.8319 18.4373 54.7782 18.3453 54.7245 18.2514V18.2495C54.0236 17.0439 53.4203 15.7842 52.9205 14.4823V14.4804C52.8822 14.3845 52.8477 14.2887 52.8112 14.1928C52.7614 14.2772 52.7135 14.3615 52.6675 14.4459C52.6672 14.4459 52.667 14.4459 52.6667 14.446C52.6665 14.4461 52.6663 14.4462 52.6661 14.4464C52.6659 14.4466 52.6658 14.4468 52.6657 14.447C52.6656 14.4473 52.6655 14.4475 52.6655 14.4478C50.8059 17.774 50.6295 21.7808 51.6514 25.5039Z" fill="#F0F0F0"/>
<path d="M52.6653 14.4478C52.6467 16.223 52.8313 17.9944 53.2155 19.7276C53.3882 20.5207 53.6032 21.3041 53.8597 22.0742C54.3576 23.5809 55.0083 25.0327 55.8017 26.4069C55.8458 26.4817 55.888 26.5545 55.934 26.6274V26.6293C56.2731 27.201 56.641 27.7551 57.0364 28.2895C57.6347 29.1408 58.3738 29.8838 59.2219 30.4865C59.9147 30.9443 60.6981 31.247 61.5186 31.3742C61.672 31.4029 61.8292 31.424 61.9883 31.4432C62.6229 31.518 63.2785 31.5467 63.9074 31.6809C64.2259 31.7438 64.536 31.8436 64.8314 31.9781C65.8437 32.4478 66.4131 33.4313 66.6623 34.4819C66.7064 34.6659 66.7409 34.8519 66.7677 35.0378C66.9767 36.4661 66.7466 37.9499 66.8655 39.3801C66.8789 39.5316 66.8962 39.685 66.9172 39.8364H67.0591L67.1511 39.6255V39.6236C67.1416 39.5431 67.1339 39.4626 67.1262 39.3801C67.0802 38.6774 67.0744 37.9727 67.109 37.2694C67.1166 36.953 67.1224 36.6348 67.1185 36.3166C67.1147 36.0616 67.1051 35.8066 67.086 35.5535V35.5516C67.0725 35.3944 67.0572 35.2391 67.0361 35.0838C66.9752 34.6084 66.8581 34.1418 66.6872 33.6939C66.5204 33.2324 66.2579 32.8114 65.9169 32.4586C65.576 32.1057 65.1642 31.8289 64.7087 31.6464C64.4305 31.5421 64.1438 31.4619 63.8517 31.4068C63.2095 31.2841 62.5462 31.2534 61.9001 31.1729C61.8311 31.1652 61.7621 31.1556 61.695 31.1441C61.6087 31.1307 61.5244 31.1154 61.44 31.1C60.5947 30.95 59.7963 30.604 59.1088 30.0897C58.2918 29.4429 57.5815 28.6717 57.0038 27.8045C56.6894 27.354 56.3903 26.8938 56.1123 26.4203C56.1123 26.4201 56.1123 26.4198 56.1122 26.4196C56.1121 26.4193 56.112 26.4191 56.1118 26.419C56.1116 26.4188 56.1114 26.4186 56.1111 26.4185C56.1109 26.4184 56.1107 26.4184 56.1104 26.4184C56.097 26.3954 56.0836 26.3743 56.0701 26.3513L56.0682 26.3475C54.8759 24.3098 54.0054 22.1001 53.4878 19.7966C53.4705 19.7123 53.4513 19.6279 53.4322 19.5436C53.0764 17.8804 52.9047 16.1831 52.9203 14.4823V14.4804C52.9203 14.3999 52.9222 14.3213 52.9241 14.2408C52.928 14.0759 52.673 14.0395 52.6692 14.2044C52.6673 14.2849 52.6653 14.3654 52.6673 14.4459C52.667 14.4459 52.6668 14.446 52.6665 14.446C52.6663 14.4461 52.6661 14.4463 52.6659 14.4465C52.6657 14.4466 52.6656 14.4468 52.6655 14.4471C52.6654 14.4473 52.6653 14.4476 52.6653 14.4478Z" fill="white"/>
<path d="M56.0426 26.5753C55.3121 26.9464 54.4734 27.0457 53.6764 26.8555C52.8795 26.6653 52.176 26.198 51.6918 25.5371C51.5943 25.403 51.798 25.2451 51.8957 25.3794C52.3455 25.9957 53.0008 26.4309 53.7433 26.6065C54.4858 26.7821 55.2666 26.6865 55.9448 26.3369C56.0923 26.2611 56.1892 26.5 56.0426 26.5753Z" fill="white"/>
<path d="M61.4158 31.1764C61.9496 29.5888 61.8654 27.8583 61.18 26.33C61.112 26.1786 61.3505 26.0811 61.4185 26.2322C62.1287 27.8239 62.2126 29.6249 61.6535 31.2758C61.6001 31.4331 61.3626 31.3328 61.4158 31.1764L61.4158 31.1764Z" fill="white"/>
<path d="M53.3571 19.567C53.6697 19.4824 53.9563 19.3214 54.1913 19.0985C54.4263 18.8757 54.6023 18.598 54.7034 18.2903C54.7548 18.1324 54.9922 18.2329 54.9411 18.3898C54.8278 18.7292 54.6331 19.0356 54.374 19.2824C54.1149 19.5292 53.7994 19.7087 53.4549 19.8054C53.4232 19.8173 53.3882 19.8166 53.3569 19.8035C53.3257 19.7905 53.3006 19.766 53.2868 19.7351C53.274 19.7035 53.2742 19.6681 53.2874 19.6366C53.3005 19.6051 53.3256 19.5801 53.3571 19.567H53.3571Z" fill="white"/>
<path d="M63.3406 27.3328V27.3348C63.4001 28.7038 63.5713 30.0656 63.8525 31.4067V31.4087C63.8678 31.5007 63.8889 31.5908 63.9081 31.6809C64.3708 33.755 65.0195 35.7832 65.8463 37.7409C66.0745 38.2931 66.3135 38.8395 66.5633 39.3801C66.6323 39.5335 66.7033 39.6849 66.7761 39.8364H67.0599L67.1519 39.6255V39.6236L67.2592 39.3801L67.2727 39.3513L67.2784 39.3801L67.3839 39.8364H70.1254L70.6583 39.3801L71.4347 38.7148L70.3497 37.5301L70.1714 37.3345L70.1445 37.3057L70.0582 37.2118L70.4167 35.6436L69.6959 35.5247L70.4858 33.0881L70.8596 31.9359L70.9535 31.6464L71.4999 29.9612L73.1487 30.2699L73.4171 29.3305C72.9229 28.185 72.5116 27.0055 72.1863 25.8011C72.1844 25.7915 72.1805 25.7838 72.1786 25.7742C71.3076 22.53 71.0462 19.1524 71.4079 15.8128V15.8109C71.4194 15.7035 71.4328 15.5943 71.4482 15.4888V15.485C71.6125 14.101 71.8895 12.7327 72.2764 11.3938C72.3032 11.2922 72.3339 11.1925 72.3627 11.0928C72.2745 11.1312 72.1882 11.1676 72.1 11.2059L72.0981 11.2079H72.0943C71.9543 11.2692 71.8144 11.3344 71.6783 11.4034C68.4076 12.9927 66.0016 15.9758 64.6347 19.4151C64.6309 19.4247 64.627 19.4324 64.6232 19.4419C63.91 21.2449 63.4849 23.1489 63.3637 25.0841C63.3177 25.8328 63.31 26.5833 63.3406 27.3328Z" fill="#F0F0F0"/>
<path d="M68.3145 39.8364H68.6174C68.7132 39.6811 68.8168 39.5296 68.9203 39.3801C69.0852 39.1481 69.2551 38.9213 69.4302 38.6995C69.5817 38.5078 69.7331 38.318 69.8846 38.1282C70.0418 37.9308 70.1971 37.7333 70.3486 37.5301L70.1703 37.3345C70.1415 37.3729 70.1128 37.4112 70.082 37.4496C69.5913 38.0956 69.0602 38.7168 68.6059 39.3801C68.5042 39.5296 68.4065 39.6811 68.3145 39.8364Z" fill="white"/>
<path d="M72.4253 11.1999C72.3755 11.2632 72.3237 11.3284 72.2758 11.3936C71.9019 11.8786 71.5485 12.379 71.2156 12.8947C70.6226 13.8046 70.096 14.756 69.6397 15.7416C69.6033 15.8183 69.5669 15.8969 69.5324 15.9755C68.556 18.1291 67.9196 20.4211 67.6459 22.7698C67.6421 22.7928 67.6402 22.8139 67.6382 22.8369C67.575 23.3852 67.5341 23.9354 67.5155 24.4876C67.4544 25.5273 67.5573 26.5702 67.8204 27.578C67.8587 27.7103 67.9009 27.8406 67.9469 27.9672C68.0622 28.2773 68.2067 28.5757 68.3782 28.8586C68.5015 29.0651 68.6386 29.263 68.7885 29.451C68.8786 29.566 68.9726 29.6792 69.0722 29.7884C69.1298 29.8517 69.1892 29.915 69.2486 29.9782C69.2985 30.0262 69.3464 30.076 69.3962 30.1239C69.9139 30.6262 70.4852 31.0921 70.9529 31.6461L70.859 31.9356C70.4085 31.3643 69.8276 30.8908 69.3042 30.3923C68.9757 30.0834 68.6766 29.7445 68.4108 29.3801C68.3763 29.3302 68.3399 29.2804 68.3073 29.2286C68.1297 28.9691 67.9763 28.6938 67.8491 28.4062C67.784 28.2624 67.7245 28.1148 67.6708 27.9614C67.3576 26.9702 67.215 25.933 67.2491 24.894C67.2552 24.2285 67.2949 23.5637 67.3679 22.9021C67.3756 22.8158 67.3852 22.7315 67.3967 22.6452C67.5911 21.0706 67.9457 19.5199 68.455 18.0173C69.0995 16.111 69.9861 14.2953 71.0929 12.6148C71.4092 12.1336 71.7447 11.6639 72.0994 11.2057C72.1454 11.1424 72.1933 11.0811 72.2432 11.0178C72.3448 10.8874 72.5269 11.0696 72.4253 11.1999Z" fill="white"/>
<path d="M67.4877 22.9263C66.681 22.7828 65.9517 22.3571 65.4298 21.7254C64.908 21.0938 64.6277 20.2971 64.639 19.4779C64.6398 19.4444 64.6535 19.4126 64.6772 19.3891C64.701 19.3656 64.7329 19.3523 64.7664 19.3519C64.7998 19.3515 64.832 19.3641 64.8563 19.387C64.8807 19.4099 64.8951 19.4413 64.8967 19.4747C64.8848 20.2376 65.146 20.9796 65.6331 21.5669C66.1202 22.1541 66.8012 22.5479 67.5532 22.6771C67.7166 22.7054 67.6502 22.9545 67.4877 22.9263L67.4877 22.9263Z" fill="white"/>
<path d="M69.0073 29.8343C70.3894 28.8881 71.3641 27.4557 71.737 25.8228C71.7738 25.661 72.023 25.7267 71.9862 25.8883C71.595 27.5868 70.5777 29.0753 69.1373 30.0568C68.9999 30.1503 68.8707 29.9272 69.0074 29.8343H69.0073Z" fill="white"/>
<path d="M69.563 15.7138C69.8636 15.8344 70.1894 15.8784 70.5112 15.842C70.8329 15.8055 71.1406 15.6897 71.4066 15.505C71.5427 15.4099 71.6717 15.633 71.5365 15.7275C71.2417 15.9303 70.9018 16.0577 70.5463 16.0988C70.1909 16.1398 69.8308 16.0932 69.4976 15.963C69.4651 15.9534 69.4376 15.9317 69.4205 15.9025C69.4035 15.8733 69.3981 15.8387 69.4057 15.8057C69.4145 15.7727 69.436 15.7446 69.4655 15.7274C69.4949 15.7102 69.53 15.7053 69.563 15.7138Z" fill="white"/>
<path d="M68.3913 41.5523C72.3257 41.5523 75.5151 38.3629 75.5151 34.4286C75.5151 30.4943 72.3257 27.3049 68.3913 27.3049C64.457 27.3049 61.2676 30.4943 61.2676 34.4286C61.2676 38.3629 64.457 41.5523 68.3913 41.5523Z" fill="#F97588"/>
<path d="M67.4598 37.3668C66.9498 37.3666 66.4422 37.2969 65.9509 37.1597C65.9038 37.1472 65.8628 37.1183 65.8352 37.0781C65.8076 37.0379 65.7953 36.9892 65.8006 36.9408C65.8041 36.8912 65.8252 36.8445 65.8602 36.8091C65.8951 36.7738 65.9416 36.7522 65.9912 36.7482C66.7274 36.6741 67.0136 36.4247 67.1187 36.2828C67.1241 36.2757 67.1276 36.2674 67.1288 36.2586C67.1301 36.2498 67.1291 36.2408 67.1259 36.2325C67.1231 36.2247 67.1183 36.2178 67.112 36.2125C67.1058 36.2071 67.0982 36.2034 67.0901 36.2018C66.8582 36.1562 66.6378 36.0649 66.4416 35.9333C66.3904 35.8979 66.3486 35.8506 66.3197 35.7955C66.2908 35.7404 66.2757 35.6791 66.2757 35.6168C66.2757 35.5546 66.2907 35.4933 66.3196 35.4382C66.3484 35.3831 66.3902 35.3357 66.4413 35.3003C66.4512 35.2935 66.4534 35.2879 66.4524 35.2804C66.4518 35.2761 66.4501 35.2719 66.4474 35.2685C66.4447 35.2651 66.4411 35.2625 66.437 35.261C66.2786 35.2115 66.1324 35.1293 66.0078 35.0198C65.8831 34.9103 65.7828 34.7759 65.7133 34.6253C65.6831 34.5595 65.6721 34.4864 65.6816 34.4146C65.6911 34.3428 65.7206 34.2752 65.7669 34.2195C65.8134 34.1618 65.8753 34.1185 65.9455 34.0945C66.0156 34.0706 66.0911 34.0669 66.1632 34.0841C65.8949 33.7622 65.6944 33.3895 65.5735 32.9883C65.5536 32.9068 65.5608 32.821 65.5939 32.7439C65.627 32.6667 65.6843 32.6025 65.7572 32.5608C65.83 32.5191 65.9144 32.5021 65.9977 32.5126C66.081 32.523 66.1586 32.5603 66.2189 32.6187C66.6459 33.0375 67.1766 33.3351 67.7566 33.481C67.9284 33.521 68.1091 33.4918 68.2594 33.3996C68.4098 33.3074 68.5178 33.1596 68.5601 32.9883C68.6373 32.6721 68.8179 32.3907 69.0732 32.1888C69.3285 31.987 69.644 31.8761 69.9695 31.8739C70.742 31.8739 71.0317 32.2292 71.1194 32.3786L71.6646 32.0511C71.6796 32.042 71.6969 32.0375 71.7144 32.038C71.7319 32.0386 71.7489 32.0442 71.7633 32.0543C71.7776 32.0643 71.7888 32.0783 71.7954 32.0946C71.8019 32.1108 71.8036 32.1286 71.8003 32.1458C71.7668 32.3624 71.6883 32.5696 71.5698 32.7539L71.8625 32.6955C71.8843 32.6911 71.9069 32.6937 71.9271 32.703C71.9473 32.7122 71.964 32.7276 71.975 32.7469C71.9859 32.7662 71.9905 32.7885 71.988 32.8106C71.9855 32.8327 71.9761 32.8534 71.9611 32.8698H71.9611C71.8691 32.9707 71.7348 33.1156 71.6178 33.2331C71.4796 33.3728 71.3909 33.554 71.3653 33.7488C70.9273 36.8967 68.7304 37.3668 67.4598 37.3668Z" fill="white"/>
<path d="M166.343 30.981H83.9327C83.7548 30.981 83.5841 30.9103 83.4582 30.7844C83.3324 30.6586 83.2617 30.4879 83.2617 30.31C83.2617 30.132 83.3324 29.9613 83.4582 29.8355C83.5841 29.7097 83.7548 29.639 83.9327 29.639H166.343C166.521 29.639 166.692 29.7097 166.817 29.8355C166.943 29.9613 167.014 30.132 167.014 30.31C167.014 30.4879 166.943 30.6586 166.817 30.7844C166.692 30.9103 166.521 30.981 166.343 30.981Z" fill="#E6E7E8"/>
<path d="M166.343 35.0996H83.9327C83.7548 35.0996 83.5841 35.0289 83.4582 34.9031C83.3324 34.7773 83.2617 34.6066 83.2617 34.4286C83.2617 34.2507 83.3324 34.08 83.4582 33.9542C83.5841 33.8283 83.7548 33.7576 83.9327 33.7576H166.343C166.521 33.7576 166.692 33.8283 166.817 33.9542C166.943 34.08 167.014 34.2507 167.014 34.4286C167.014 34.6066 166.943 34.7773 166.817 34.9031C166.692 35.0289 166.521 35.0996 166.343 35.0996Z" fill="#E6E7E8"/>
<path d="M139.097 39.2182H83.9327C83.7548 39.2182 83.5841 39.1475 83.4582 39.0216C83.3324 38.8958 83.2617 38.7251 83.2617 38.5472C83.2617 38.3692 83.3324 38.1985 83.4582 38.0727C83.5841 37.9469 83.7548 37.8762 83.9327 37.8762H139.097C139.275 37.8762 139.446 37.9469 139.572 38.0727C139.698 38.1985 139.768 38.3692 139.768 38.5472C139.768 38.7251 139.698 38.8958 139.572 39.0216C139.446 39.1475 139.275 39.2182 139.097 39.2182Z" fill="#E6E7E8"/>
<path d="M68.3913 66.7591C72.3257 66.7591 75.5151 63.5697 75.5151 59.6354C75.5151 55.7011 72.3257 52.5117 68.3913 52.5117C64.457 52.5117 61.2676 55.7011 61.2676 59.6354C61.2676 63.5697 64.457 66.7591 68.3913 66.7591Z" fill="#E6E6E6"/>
<path d="M166.343 56.1878H83.9327C83.7548 56.1878 83.5841 56.1171 83.4582 55.9913C83.3324 55.8655 83.2617 55.6948 83.2617 55.5168C83.2617 55.3389 83.3324 55.1682 83.4582 55.0424C83.5841 54.9165 83.7548 54.8458 83.9327 54.8458H166.343C166.521 54.8458 166.692 54.9165 166.817 55.0424C166.943 55.1682 167.014 55.3389 167.014 55.5168C167.014 55.6948 166.943 55.8655 166.817 55.9913C166.692 56.1171 166.521 56.1878 166.343 56.1878Z" fill="#E6E7E8"/>
<path d="M166.343 60.3065H83.9327C83.7548 60.3065 83.5841 60.2358 83.4582 60.1099C83.3324 59.9841 83.2617 59.8134 83.2617 59.6355C83.2617 59.4575 83.3324 59.2868 83.4582 59.161C83.5841 59.0352 83.7548 58.9645 83.9327 58.9645H166.343C166.521 58.9645 166.692 59.0352 166.817 59.161C166.943 59.2868 167.014 59.4575 167.014 59.6355C167.014 59.8134 166.943 59.9841 166.817 60.1099C166.692 60.2358 166.521 60.3065 166.343 60.3065Z" fill="#E6E7E8"/>
<path d="M139.097 64.425H83.9327C83.7548 64.425 83.5841 64.3543 83.4582 64.2285C83.3324 64.1026 83.2617 63.932 83.2617 63.754C83.2617 63.576 83.3324 63.4054 83.4582 63.2795C83.5841 63.1537 83.7548 63.083 83.9327 63.083H139.097C139.275 63.083 139.446 63.1537 139.572 63.2795C139.698 63.4054 139.768 63.576 139.768 63.754C139.768 63.932 139.698 64.1026 139.572 64.2285C139.446 64.3543 139.275 64.425 139.097 64.425Z" fill="#E6E7E8"/>
<path d="M68.3913 91.966C72.3257 91.966 75.5151 88.7766 75.5151 84.8423C75.5151 80.908 72.3257 77.7186 68.3913 77.7186C64.457 77.7186 61.2676 80.908 61.2676 84.8423C61.2676 88.7766 64.457 91.966 68.3913 91.966Z" fill="#F97588"/>
<path d="M67.4598 87.7804C66.9498 87.7802 66.4422 87.7106 65.9509 87.5734C65.9038 87.5609 65.8628 87.5319 65.8352 87.4918C65.8076 87.4516 65.7953 87.4029 65.8006 87.3544C65.8041 87.3048 65.8252 87.2581 65.8602 87.2228C65.8951 87.1875 65.9416 87.1658 65.9912 87.1618C66.7274 87.0877 67.0136 86.8384 67.1187 86.6965C67.1241 86.6894 67.1276 86.681 67.1288 86.6722C67.1301 86.6634 67.1291 86.6545 67.1259 86.6462C67.1231 86.6384 67.1183 86.6315 67.112 86.6261C67.1058 86.6207 67.0982 86.6171 67.0901 86.6155C66.8582 86.5699 66.6378 86.4786 66.4416 86.3469C66.3904 86.3115 66.3486 86.2642 66.3197 86.2091C66.2908 86.154 66.2757 86.0927 66.2757 86.0305C66.2757 85.9683 66.2907 85.907 66.3196 85.8518C66.3484 85.7967 66.3902 85.7494 66.4413 85.7139C66.4512 85.7072 66.4534 85.7015 66.4524 85.694C66.4518 85.6897 66.4501 85.6856 66.4474 85.6822C66.4447 85.6787 66.4411 85.6761 66.437 85.6746C66.2786 85.6251 66.1324 85.543 66.0078 85.4335C65.8831 85.324 65.7828 85.1896 65.7133 85.0389C65.6831 84.9731 65.6721 84.9001 65.6816 84.8283C65.6911 84.7565 65.7206 84.6888 65.7669 84.6331C65.8134 84.5754 65.8753 84.5321 65.9455 84.5081C66.0156 84.4842 66.0911 84.4806 66.1632 84.4977C65.8949 84.1758 65.6944 83.8032 65.5735 83.402C65.5536 83.3204 65.5608 83.2346 65.5939 83.1575C65.627 83.0804 65.6843 83.0161 65.7572 82.9744C65.83 82.9327 65.9144 82.9158 65.9977 82.9262C66.081 82.9367 66.1586 82.9739 66.2189 83.0323C66.6459 83.4511 67.1766 83.7487 67.7566 83.8947C67.9284 83.9347 68.1091 83.9054 68.2594 83.8132C68.4098 83.721 68.5178 83.5732 68.5601 83.402C68.6373 83.0858 68.8179 82.8044 69.0732 82.6025C69.3285 82.4006 69.644 82.2897 69.9695 82.2875C70.742 82.2875 71.0317 82.6428 71.1194 82.7922L71.6646 82.4647C71.6796 82.4556 71.6969 82.4511 71.7144 82.4517C71.7319 82.4522 71.7489 82.4579 71.7633 82.4679C71.7776 82.4779 71.7888 82.4919 71.7954 82.5082C71.8019 82.5245 71.8036 82.5423 71.8003 82.5595C71.7668 82.776 71.6883 82.9832 71.5698 83.1675L71.8625 83.1091C71.8843 83.1048 71.9069 83.1074 71.9271 83.1166C71.9473 83.1258 71.964 83.1412 71.975 83.1605C71.9859 83.1799 71.9905 83.2021 71.988 83.2242C71.9855 83.2463 71.9761 83.267 71.9611 83.2834H71.9611C71.8691 83.3843 71.7348 83.5292 71.6178 83.6467C71.4796 83.7865 71.3909 83.9676 71.3653 84.1625C70.9273 87.3104 68.7304 87.7804 67.4598 87.7804Z" fill="white"/>
<path d="M166.343 81.3946H83.9327C83.7548 81.3946 83.5841 81.3239 83.4582 81.1981C83.3324 81.0723 83.2617 80.9016 83.2617 80.7236C83.2617 80.5457 83.3324 80.375 83.4582 80.2492C83.5841 80.1234 83.7548 80.0527 83.9327 80.0527H166.343C166.521 80.0527 166.692 80.1234 166.817 80.2492C166.943 80.375 167.014 80.5457 167.014 80.7236C167.014 80.9016 166.943 81.0723 166.817 81.1981C166.692 81.3239 166.521 81.3946 166.343 81.3946Z" fill="#E6E7E8"/>
<path d="M166.343 85.5133H83.9327C83.7548 85.5133 83.5841 85.4426 83.4582 85.3168C83.3324 85.1909 83.2617 85.0203 83.2617 84.8423C83.2617 84.6644 83.3324 84.4937 83.4582 84.3678C83.5841 84.242 83.7548 84.1713 83.9327 84.1713H166.343C166.521 84.1713 166.692 84.242 166.817 84.3678C166.943 84.4937 167.014 84.6644 167.014 84.8423C167.014 85.0203 166.943 85.1909 166.817 85.3168C166.692 85.4426 166.521 85.5133 166.343 85.5133Z" fill="#E6E7E8"/>
<path d="M139.097 89.632H83.9327C83.7548 89.632 83.5841 89.5613 83.4582 89.4354C83.3324 89.3096 83.2617 89.1389 83.2617 88.9609C83.2617 88.783 83.3324 88.6123 83.4582 88.4864C83.5841 88.3606 83.7548 88.2899 83.9327 88.2899H139.097C139.275 88.2899 139.446 88.3606 139.572 88.4864C139.698 88.6123 139.768 88.783 139.768 88.9609C139.768 89.1389 139.698 89.3096 139.572 89.4354C139.446 89.5613 139.275 89.632 139.097 89.632Z" fill="#E6E7E8"/>
<path d="M45.8537 67.3451C46.1148 67.1269 46.3248 66.8541 46.469 66.546C46.6133 66.2378 46.6882 65.9018 46.6885 65.5616C46.6888 65.2214 46.6145 64.8852 46.4709 64.5768C46.3272 64.2684 46.1177 63.9953 45.8571 63.7766L45.0424 44.8924L42.2476 39.6237L39.25 39.0396L39.9393 47.6973L42.4536 64.1775C42.1152 64.6397 41.9582 65.21 42.0122 65.7802C42.0663 66.3505 42.3276 66.8811 42.7467 67.2715C43.1658 67.662 43.7136 67.8851 44.2863 67.8987C44.8589 67.9122 45.4166 67.7153 45.8537 67.3451L45.8537 67.3451Z" fill="#A0616A"/>
<path d="M33.048 25.0014C36.3493 25.0014 39.0256 22.3251 39.0256 19.0238C39.0256 15.7224 36.3493 13.0461 33.048 13.0461C29.7466 13.0461 27.0703 15.7224 27.0703 19.0238C27.0703 22.3251 29.7466 25.0014 33.048 25.0014Z" fill="#A0616A"/>
<path d="M33.8702 67.0046C25.9898 67.0048 20.0783 64.0367 19.9974 63.9953L19.9274 63.9593L19.9489 63.8837C20.1605 63.1427 20.3609 61.8998 19.9983 61.7186C19.9592 61.7036 19.9246 61.6791 19.8976 61.6472C19.8706 61.6153 19.8521 61.5771 19.8437 61.5361C19.8229 61.3872 19.9721 61.2511 20.1785 61.0625C20.5791 60.6966 21.1279 60.1955 20.806 59.3911C20.2387 57.9729 21.834 50.705 21.9371 50.2391L21.2557 38.6541C21.1316 36.4437 21.7723 34.258 23.07 32.4644C24.3678 30.6708 26.2435 29.3787 28.3819 28.8054L28.397 28.8014L28.4127 28.8024C28.6343 28.8149 28.8688 28.0624 29.0468 27.5118C29.3096 26.698 29.4832 26.1979 29.7793 26.2192C32.0715 26.367 33.5989 26.4637 34.6168 26.5269C36.5466 26.6468 36.8847 28.994 36.9263 29.3688C39.0036 30.6345 40.628 32.524 41.5679 34.7676C42.5078 37.0112 42.7151 39.4944 42.1603 41.8628L41.1985 45.9988L40.3485 47.986L40.6286 51.9066C41.947 53.0028 41.5692 55.2455 41.4941 55.6245C42.7503 56.9241 41.9789 58.4536 41.7918 58.7774C42.1133 59.1704 42.3322 59.637 42.4286 60.1355C42.525 60.634 42.496 61.1486 42.3442 61.6331L43.5012 65.3933L43.4139 65.4237C40.3442 66.4835 37.1177 67.018 33.8702 67.0046Z" fill="#E6E6E6"/>
<path d="M38.843 46.3555L35.0879 39.1344L37.6843 32.2106L37.7392 32.2017C38.7426 32.0353 39.7728 32.1737 40.6966 32.5991C41.6205 33.0244 42.3954 33.7172 42.9214 34.5877C43.7678 35.9803 44.3631 37.5107 44.6801 39.1093C45.5207 43.5927 45.8128 44.4975 45.8157 44.5061L45.8482 44.6042L38.843 46.3555Z" fill="#E6E6E6"/>
<path d="M42.319 67.5785C46.2534 67.5785 49.4428 64.3891 49.4428 60.4548C49.4428 56.5204 46.2534 53.3311 42.319 53.3311C38.3847 53.3311 35.1953 56.5204 35.1953 60.4548C35.1953 64.3891 38.3847 67.5785 42.319 67.5785Z" fill="#F97588"/>
<path d="M41.3856 63.393C40.8756 63.3928 40.3679 63.3231 39.8767 63.1859C39.8296 63.1735 39.7885 63.1445 39.7609 63.1043C39.7334 63.0642 39.7211 63.0154 39.7264 62.967C39.7298 62.9174 39.751 62.8707 39.7859 62.8353C39.8209 62.8 39.8674 62.7784 39.9169 62.7744C40.6532 62.7003 40.9394 62.4509 41.0445 62.309C41.0499 62.3019 41.0533 62.2936 41.0546 62.2848C41.0559 62.276 41.0549 62.267 41.0517 62.2587C41.0489 62.2509 41.0441 62.244 41.0378 62.2387C41.0315 62.2333 41.024 62.2296 41.0159 62.228C40.784 62.1824 40.5636 62.0911 40.3674 61.9595C40.3162 61.9241 40.2744 61.8768 40.2455 61.8217C40.2166 61.7666 40.2015 61.7053 40.2015 61.643C40.2014 61.5808 40.2165 61.5195 40.2454 61.4644C40.2742 61.4093 40.316 61.3619 40.3671 61.3265C40.377 61.3197 40.3791 61.3141 40.3781 61.3066C40.3776 61.3023 40.3759 61.2981 40.3732 61.2947C40.3705 61.2913 40.3669 61.2887 40.3627 61.2872C40.2044 61.2377 40.0582 61.1555 39.9335 61.046C39.8089 60.9365 39.7086 60.8021 39.6391 60.6515C39.6089 60.5856 39.5979 60.5126 39.6073 60.4408C39.6168 60.369 39.6464 60.3014 39.6926 60.2457C39.7392 60.188 39.8011 60.1447 39.8713 60.1207C39.9414 60.0968 40.0169 60.0931 40.089 60.1103C39.8207 59.7884 39.6201 59.4157 39.4993 59.0145C39.4794 58.933 39.4866 58.8472 39.5197 58.7701C39.5528 58.6929 39.6101 58.6287 39.683 58.587C39.7558 58.5452 39.8402 58.5283 39.9235 58.5388C40.0068 58.5492 40.0844 58.5865 40.1447 58.6449C40.5717 59.0637 41.1024 59.3613 41.6824 59.5072C41.8542 59.5472 42.0348 59.518 42.1852 59.4258C42.3356 59.3335 42.4436 59.1858 42.4858 59.0145C42.563 58.6983 42.7436 58.4169 42.999 58.215C43.2543 58.0131 43.5697 57.9023 43.8952 57.9001C44.6677 57.9001 44.9575 58.2554 45.0451 58.4048L45.5903 58.0773C45.6053 58.0682 45.6227 58.0637 45.6402 58.0642C45.6577 58.0648 45.6747 58.0704 45.689 58.0805C45.7034 58.0905 45.7146 58.1045 45.7211 58.1208C45.7277 58.137 45.7294 58.1548 45.726 58.172C45.6926 58.3886 45.6141 58.5958 45.4956 58.7801L45.7883 58.7217C45.81 58.7173 45.8326 58.7199 45.8528 58.7291C45.873 58.7384 45.8898 58.7538 45.9007 58.7731C45.9117 58.7924 45.9162 58.8147 45.9137 58.8368C45.9113 58.8588 45.9019 58.8796 45.8869 58.896H45.8868C45.7948 58.9969 45.6605 59.1418 45.5436 59.2593C45.4054 59.399 45.3166 59.5802 45.291 59.7751C44.8531 62.9229 42.6562 63.393 41.3856 63.393Z" fill="white"/>
<path d="M35.51 67.8571C35.1864 67.7519 34.8899 67.5771 34.6412 67.3449C34.3925 67.1128 34.1977 66.8289 34.0706 66.5133C33.9434 66.1978 33.887 65.8582 33.9054 65.5184C33.9237 65.1787 34.0163 64.8471 34.1766 64.5471L27.8926 46.7205L28.5218 40.7897L31.0855 39.1302L33.6735 47.4207L37.4842 63.6503C37.9705 63.953 38.3288 64.4236 38.4912 64.9729C38.6537 65.5222 38.609 66.112 38.3656 66.6305C38.1223 67.1491 37.6972 67.5603 37.1709 67.7864C36.6446 68.0124 36.0536 68.0376 35.51 67.8571H35.51Z" fill="#A0616A"/>
<path d="M24.5059 34.5516L30.449 32.251L33.8998 43.7538L25.9347 46.2777L24.5059 34.5516Z" fill="#E6E6E6"/>
<path d="M27.9808 22.7812C27.907 22.7815 27.8337 22.7697 27.7638 22.7462C27.4891 22.6258 27.2595 22.4217 27.1077 22.1631C26.0483 20.6393 25.5367 18.6077 25.5874 16.1246C25.6089 15.0741 25.7277 13.731 26.4634 12.6603C27.0821 11.7601 28.3336 11.0457 29.4998 11.4043C29.4362 10.936 29.7529 10.4707 30.1288 10.2404C30.5706 9.9699 31.1023 9.9201 31.5714 9.87601C32.756 9.76499 33.9805 9.65023 35.1799 9.87751C36.5248 10.1326 37.6244 10.8258 38.1969 11.7793L38.2085 11.8092L38.3249 12.3743C38.3405 12.4502 38.3724 12.5219 38.4184 12.5843C38.4644 12.6468 38.5234 12.6985 38.5913 12.736C38.6592 12.7734 38.7344 12.7957 38.8118 12.8013C38.8891 12.8069 38.9667 12.7957 39.0393 12.7684C39.1186 12.7385 39.2042 12.7299 39.2878 12.7433C39.3714 12.7567 39.45 12.7916 39.516 12.8447C39.5819 12.8977 39.6329 12.9671 39.6639 13.0458C39.6949 13.1246 39.7048 13.2101 39.6926 13.2939L39.6601 13.5187L39.9985 13.4554C40.0831 13.4396 40.1704 13.4465 40.2515 13.4755C40.3326 13.5044 40.4045 13.5543 40.46 13.6201C40.5156 13.6859 40.5526 13.7653 40.5675 13.8501C40.5824 13.9349 40.5745 14.0221 40.5447 14.1029L40.4491 14.3613C40.5191 14.3618 40.5883 14.3766 40.6523 14.4048C40.7164 14.433 40.774 14.474 40.8216 14.5253C40.89 14.5989 40.9331 14.6924 40.9446 14.7923C40.9561 14.8921 40.9353 14.993 40.8854 15.0802C40.5074 15.7266 39.9711 16.2663 39.3269 16.6482C38.9749 16.86 38.5899 17.0114 38.1879 17.0961C35.5794 17.6591 32.8898 17.7399 30.2522 17.3347C30.4083 17.855 30.4684 18.3993 30.4296 18.9411C30.3451 19.6185 29.9474 20.1776 29.4162 20.3653C29.2953 20.4046 29.1715 20.4345 29.0459 20.4546C28.9259 20.4733 28.8076 20.502 28.6924 20.5405C28.5215 20.6032 28.3703 20.7099 28.2539 20.8498C28.1375 20.9896 28.06 21.1577 28.0292 21.3371C27.9985 21.5164 28.0156 21.7007 28.0789 21.8713C28.1421 22.042 28.2492 22.1929 28.3894 22.3089L28.6514 22.0359L28.5662 22.3829C28.5484 22.4505 28.5166 22.5136 28.4729 22.568C28.4291 22.6225 28.3744 22.6671 28.3123 22.6991C28.2103 22.7535 28.0964 22.7817 27.9808 22.7812Z" fill="#2F2E41"/>
<path d="M166.825 7.52707H61.5126C61.4618 7.52594 61.4134 7.50494 61.3778 7.46855C61.3422 7.43217 61.3223 7.3833 61.3223 7.33241C61.3223 7.28152 61.3422 7.23265 61.3778 7.19627C61.4134 7.15989 61.4618 7.13889 61.5126 7.13776H166.825C166.876 7.13889 166.924 7.15989 166.96 7.19627C166.996 7.23265 167.015 7.28152 167.015 7.33241C167.015 7.3833 166.996 7.43217 166.96 7.46855C166.924 7.50494 166.876 7.52594 166.825 7.52707Z" fill="#CACACA"/>
<path d="M65.7996 4.80188C66.9564 4.80188 67.8941 3.84323 67.8941 2.66068C67.8941 1.47812 66.9564 0.51947 65.7996 0.51947C64.6428 0.51947 63.7051 1.47812 63.7051 2.66068C63.7051 3.84323 64.6428 4.80188 65.7996 4.80188Z" fill="#3F3D56"/>
<path d="M73.034 4.80188C74.1908 4.80188 75.1285 3.84323 75.1285 2.66068C75.1285 1.47812 74.1908 0.51947 73.034 0.51947C71.8772 0.51947 70.9395 1.47812 70.9395 2.66068C70.9395 3.84323 71.8772 4.80188 73.034 4.80188Z" fill="#3F3D56"/>
<path d="M80.2703 4.80188C81.4271 4.80188 82.3648 3.84323 82.3648 2.66068C82.3648 1.47812 81.4271 0.51947 80.2703 0.51947C79.1135 0.51947 78.1758 1.47812 78.1758 2.66068C78.1758 3.84323 79.1135 4.80188 80.2703 4.80188Z" fill="#3F3D56"/>
<path d="M162.491 1.82916H157.35C157.248 1.82691 157.151 1.78491 157.08 1.71214C157.009 1.63938 156.969 1.54164 156.969 1.43985C156.969 1.33806 157.009 1.24032 157.08 1.16755C157.151 1.09479 157.248 1.05278 157.35 1.05054H162.491C162.592 1.05278 162.689 1.09479 162.76 1.16755C162.832 1.24032 162.871 1.33806 162.871 1.43985C162.871 1.54164 162.832 1.63938 162.76 1.71214C162.689 1.78491 162.592 1.82691 162.491 1.82916Z" fill="#3F3D56"/>
<path d="M162.491 3.28912H157.35C157.248 3.28687 157.151 3.24487 157.08 3.1721C157.009 3.09934 156.969 3.0016 156.969 2.89981C156.969 2.79802 157.009 2.70028 157.08 2.62751C157.151 2.55475 157.248 2.51275 157.35 2.5105H162.491C162.592 2.51275 162.689 2.55475 162.76 2.62751C162.832 2.70028 162.871 2.79802 162.871 2.89981C162.871 3.0016 162.832 3.09934 162.76 3.1721C162.689 3.24487 162.592 3.28687 162.491 3.28912Z" fill="#3F3D56"/>
<path d="M162.491 4.74902H157.35C157.248 4.74677 157.151 4.70477 157.08 4.632C157.009 4.55924 156.969 4.4615 156.969 4.35971C156.969 4.25792 157.009 4.16018 157.08 4.08741C157.151 4.01465 157.248 3.97265 157.35 3.9704H162.491C162.592 3.97265 162.689 4.01465 162.76 4.08741C162.832 4.16018 162.871 4.25792 162.871 4.35971C162.871 4.4615 162.832 4.55924 162.76 4.632C162.689 4.70477 162.592 4.74677 162.491 4.74902Z" fill="#3F3D56"/>
</g>
<defs>
<clipPath id="clip0_2_895">
<rect width="167.016" height="124.821" fill="white" transform="translate(0 0.51947)"/>
</clipPath>
</defs>
</svg>
